<svg width="163" height="35" fill="none" xmlns="http://www.w3.org/2000/svg"><g clip-path="url(#a)"><path fill-rule="evenodd" clip-rule="evenodd" d="M-.151001.701993V34.302H13.381c2.1814.0533 4.3499-.348 6.3677-1.1785 2.0178-.8306 3.8405-2.0721 5.3523-3.6455 1.5496-1.5773 2.7655-3.4507 3.5751-5.5083.8096-2.0577 1.1963-4.2573 1.1369-6.4677.0594-2.2104-.3273-4.41-1.1369-6.4677-.8096-2.05761-2.0255-3.931-3.5751-5.50831-1.5119-1.57329-3.3347-2.81469-5.3524-3.6452C17.7308 1.05028 15.5623.648834 13.381.701993H-.151001ZM7.582 26.91V8.09099h5.8c1.2025-.0479 2.4018.15576 3.521.59796 1.1193.4422 2.1339 1.1132 2.979 1.97005.8484.9176 1.5055 1.9951 1.9329 3.1695.4273 1.1744.6164 2.4222.5561 3.6705.0603 1.2483-.1287 2.4961-.5561 3.6705-.4273 1.1744-1.0844 2.2519-1.9329 3.1695-.8449.857-1.8595 1.5282-2.9788 1.9704-1.1193.4422-2.3187.6457-3.5212.5976h-5.8v.003Zm34.8-5.952h12.082v-7.3H42.378V8.09099h13.291V.701993H34.645V34.302H55.91V26.91H42.378v-5.952h.004Zm36.343 13.344L89.744.701993h-8.458L73.795 25.422 66.304.701993h-8.457L68.866 34.302h9.859Zm14.4 0h7.733V.701993h-7.733V34.302Zm38.615-1.416c2.493-1.312 4.581-3.2784 6.041-5.688l-6.67-3.84c-.73 1.301-1.832 2.3541-3.165 3.024-1.441.7442-3.043 1.122-4.664 1.1-1.32.0629-2.639-.1477-3.874-.6185-1.235-.4708-2.36-1.1917-3.303-2.1175-.91-.9669-1.616-2.1067-2.077-3.3518-.46-1.245-.666-2.57-.605-3.8962-.061-1.3262.145-2.6512.605-3.8963.461-1.245 1.167-2.3849 2.077-3.3517.943-.92578 2.068-1.64667 3.303-2.11748 1.235-.47082 2.554-.68139 3.874-.61853 1.611-.02301 3.204.34773 4.639 1.08 1.342.67781 2.452 1.73861 3.19 3.04801l6.67-3.84001c-1.487-2.40453-3.59-4.36821-6.09-5.688-2.582-1.393091-5.475-2.1113065-8.409-2.0879967C113.503-.246007 105.485 7.71699 105.691 17.498c-.208 9.781 7.809 17.747 17.588 17.476 2.95.0272 5.859-.691 8.458-2.088h.003Zm17.881-11.928h12.082v-7.3h-12.085V8.09099h13.29V.701993h-21.023V34.302h21.265V26.91h-13.532v-5.952h.003Z" fill="#000"/></g><defs><clipPath id="a"><path fill="#fff" d="M0 0h163v35H0z"/></clipPath></defs>
</svg>